<svg xmlns="http://www.w3.org/2000/svg" id="logo-svg" width="200" height="200" viewBox="0 0 200 200" style="overflow:visible"><defs><linearGradient id="gradient" x1="0%" y1="0%" x2="100%" y2="100%"><stop offset="0%" style="stop-color: rgb(161, 161, 161); stop-opacity: 1;"/><stop offset="100%" style="stop-color: rgb(32, 36, 39); stop-opacity: 1;"/></linearGradient><filter id="shadow" x="-100%" y="-100%" width="300%" height="300%" filterUnits="objectBoundingBox"><feDropShadow dx="0" dy="2" stdDeviation="4" flood-color="rgb(0,0,0)" flood-opacity="0.05"/><feDropShadow dx="0" dy="4" stdDeviation="8" flood-color="rgb(0,0,0)" flood-opacity="0.03"/><feDropShadow dx="0" dy="6" stdDeviation="12" flood-color="rgb(0,0,0)" flood-opacity="0.02"/></filter></defs><rect x="0" y="0" width="200" height="200" fill="url(#gradient)" rx="50" ry="50" filter="url(#shadow)"/><g transform="translate(31 31)"><svg xmlns="http://www.w3.org/2000/svg" width="138" height="138" viewBox="0 0 24 24" fill="#ffffff" stroke="#ffffff" stroke-width="2" stroke-linecap="round" stroke-linejoin="round" class="lucide lucide-earth" fill-opacity="0"><path d="M21.54 15H17a2 2 0 0 0-2 2v4.54"/><path d="M7 3.34V5a3 3 0 0 0 3 3a2 2 0 0 1 2 2c0 1.1.9 2 2 2a2 2 0 0 0 2-2c0-1.1.9-2 2-2h3.17"/><path d="M11 21.95V18a2 2 0 0 0-2-2a2 2 0 0 1-2-2v-1a2 2 0 0 0-2-2H2.05"/><circle cx="12" cy="12" r="10"/></svg></g></svg>